<svg width="21" height="21" viewBox="0 0 21 21" fill="none" xmlns="http://www.w3.org/2000/svg">
<path d="M14.25 3.75C15.9069 3.75 17.25 5.09315 17.25 6.75M20.25 6.75C20.25 10.0637 17.5637 12.75 14.25 12.75C13.8993 12.75 13.5555 12.7199 13.2213 12.6622C12.6583 12.5649 12.062 12.688 11.658 13.092L9 15.75H6.75V18H4.5V20.25H0.75V17.432C0.75 16.8352 0.987053 16.2629 1.40901 15.841L7.908 9.342C8.31202 8.93798 8.43512 8.34172 8.33785 7.7787C8.2801 7.44446 8.25 7.10074 8.25 6.75C8.25 3.43629 10.9363 0.75 14.25 0.75C17.5637 0.75 20.25 3.43629 20.25 6.75Z" stroke="#AFAFAF" stroke-width="1.5" stroke-linecap="round" stroke-linejoin="round"/>
</svg>
